<svg width="83" height="83" viewBox="0 0 83 83" fill="none" xmlns="http://www.w3.org/2000/svg">
<circle cx="41.5" cy="41.5" r="41.5" fill="black"/>
<path d="M48.5391 21.5178L46.6179 20.9911C46.3703 20.9086 46.1269 20.9344 45.89 21.0687C45.6523 21.2029 45.4918 21.4045 45.4093 21.673L33.8523 61.6727C33.7697 61.9412 33.7956 62.1945 33.9299 62.4318C34.0641 62.6695 34.2653 62.8296 34.5341 62.9121L36.455 63.4388C36.7029 63.5221 36.9456 63.4962 37.1832 63.3616C37.4209 63.227 37.581 63.0258 37.6635 62.7577L49.2206 22.7575C49.3031 22.4891 49.2773 22.2358 49.143 21.9981C49.0088 21.7604 48.8076 21.6003 48.5391 21.5178Z" fill="#F3F3F3"/>
<path d="M31.2195 29.3263C31.2195 29.0578 31.1161 28.8201 30.9096 28.6136L29.3603 27.0643C29.1538 26.8578 28.9161 26.7544 28.6476 26.7544C28.3791 26.7544 28.1414 26.8578 27.935 27.0643L13.4968 41.5025C13.2899 41.709 13.1869 41.9466 13.1869 42.2151C13.1869 42.4836 13.2903 42.7213 13.4968 42.9278L27.935 57.3659C28.1414 57.5728 28.3788 57.6755 28.6476 57.6755C28.9165 57.6755 29.1538 57.5724 29.3603 57.3659L30.9096 55.8174C31.1161 55.6109 31.2195 55.3732 31.2195 55.1043C31.2195 54.8362 31.1161 54.5985 30.9096 54.392L18.7331 42.2151L30.9096 30.039C31.1165 29.8325 31.2195 29.5948 31.2195 29.3263Z" fill="#F3F3F3"/>
<path d="M69.5764 41.5021L55.1379 27.064C54.9314 26.8575 54.6937 26.754 54.4256 26.754C54.1568 26.754 53.9199 26.8575 53.7126 27.064L52.1641 28.6133C51.9576 28.8198 51.8545 29.0571 51.8545 29.3259C51.8545 29.5948 51.9576 29.8321 52.1641 30.0386L64.3406 42.2151L52.1641 54.392C51.9576 54.5985 51.8545 54.8362 51.8545 55.1043C51.8545 55.3732 51.9576 55.6109 52.1641 55.8174L53.7126 57.3659C53.9199 57.5728 54.1568 57.6755 54.4256 57.6755C54.6937 57.6755 54.9314 57.5724 55.1379 57.3659L69.5764 42.9278C69.7829 42.7213 69.886 42.4832 69.886 42.2148C69.886 41.9463 69.7829 41.7086 69.5764 41.5021Z" fill="#F3F3F3"/>
</svg>
